<svg xmlns="http://www.w3.org/2000/svg" height="1200" width="1600" version="1.1" xmlns:xlink="http://www.w3.org/1999/xlink" xmlns:svgjs="http://svgjs.com/svgjs"><rect fill="#f3e9ea" width="1600" height="1200"></rect><g><path d="M855.46 502.67L855.41 282.7V282.65L937.03 193.47C937.03 193.47 937.09 193.41 937.14 193.41L1110.47 193.36C1110.52 193.36 1110.58 193.41 1110.58 193.47L1110.63 502.67C1110.63 502.72 1110.58 502.78 1110.52 502.78H855.57C855.52 502.78 855.46 502.72 855.46 502.67Z" fill="#ffffff" opacity="1" stroke-width="4" stroke="#000000"></path><path d="M906.92 304C901.67 292.56 891.54 278.92 872.76 278.92 865.76 278.92 859.79 280.89 857.11 281.93 856.72 282.1 856.39 281.61 856.67 281.33L936.82 193.74H936.87L907.03 304.11 906.92 304Z" fill="#e3e3e3" opacity="1" stroke-width="4" stroke="#000000"></path><path d="M919.46 353.82C914.86 349.87 911.8 342.48 911.63 335.09 911.47 329.18 913 320.53 921.1 312.7 924.83 309.14 928 306.41 930.79 304.05 937.96 297.98 942.24 294.31 944.64 284.78L958.38 289.71V346.15L919.46 353.82Z" fill="#996b4d" opacity="1" stroke-width="4" stroke="#000000"></path><path d="M951.49 297.42C946.56 308.92 930.68 314.94 929.04 330.27 928.33 337.17 929.86 344.07 933.42 349.98" stroke="#000000" stroke-width="4" stroke-linecap="round" stroke-linejoin="round" opacity="1" fill="none"></path><path d="M954.77 306.18C951.49 313.85 942.18 325.89 947.11 336.29" stroke="#000000" stroke-width="4" stroke-linecap="round" stroke-linejoin="round" opacity="1" fill="none"></path><path d="M1008.7 346.21V289.76L1022.38 284.78C1024.79 294.31 1029.12 297.98 1036.29 304.05 1039.08 306.41 1042.25 309.14 1045.98 312.7 1054.08 320.53 1055.61 329.18 1055.45 335.09 1055.23 342.48 1052.16 349.82 1047.62 353.82L1008.7 346.21Z" fill="#996b4d" opacity="1" stroke-width="4" stroke="#000000"></path><path d="M1015.37 297.42C1020.3 308.92 1036.18 314.94 1037.82 330.27 1038.53 337.17 1037 344.07 1033.44 349.98" stroke="#000000" stroke-width="4" stroke-linecap="round" stroke-linejoin="round" opacity="1" fill="none"></path><path d="M1012.09 306.18C1015.37 313.85 1024.68 325.89 1019.75 336.29" stroke="#000000" stroke-width="4" stroke-linecap="round" stroke-linejoin="round" opacity="1" fill="none"></path><path d="M938.62 335.42C945.08 333.18 952.14 332.08 959.53 332.03H1007.49C1014.99 332.14 1022.05 333.34 1028.46 335.48L983.57 381.46 938.62 335.42Z" fill="#ffffff" opacity="1" stroke-width="4" stroke="#000000"></path><path d="M1083.04 408.67H883.99C883.99 408.51 889.13 387.15 903.42 363.07 913.27 346.37 928.06 338.81 938.73 335.37L983.51 376.81 1028.24 335.37C1038.97 338.87 1053.81 346.48 1063.6 363.01 1076.09 384.14 1081.62 403.03 1083.04 408.34 1082.98 408.34 1083.04 408.61 1083.04 408.67Z" fill="#64ff32" opacity="1" stroke-width="4" stroke="#000000"></path><path d="M1015.21 295.24L1017.95 266.22C1020.14 264.69 1022.71 263.87 1025.45 263.87 1030.59 263.87 1036.07 266.93 1036.62 272.79 1038.26 290.69 1015.48 295.24 1015.21 295.24Z" fill="#cea482" opacity="1" stroke-width="4" stroke="#000000"></path><path d="M951.82 295.29C951.6 295.24 928.82 290.69 930.46 272.79 931.01 266.93 936.49 263.87 941.63 263.87 944.37 263.87 946.94 264.69 949.13 266.17L951.82 295.29Z" fill="#cea482" opacity="1" stroke-width="4" stroke="#000000"></path><path d="M956.96 332.14V302.35L1010.12 302.3 1010.17 332.14 983.57 356.77 956.96 332.14Z" fill="#cea482" opacity="1" stroke-width="4" stroke="#000000"></path><path d="M995.61 327.54C981.76 327.54 969.06 320.58 961.56 308.98L956.91 301.81 1010.12 301.59 1010.17 324.8 1009.74 325.02C1005.25 326.66 1000.48 327.54 995.61 327.54Z" fill="#cea48200" opacity="0" stroke-width="4" stroke="#ffffff00"></path><path d="M983.51 325.4C970.15 325.4 956.52 315.77 951.71 302.96 946.89 290.04 944.75 263.92 949.35 250.95 953.68 238.58 966.49 233.6 983.57 233.6 1000.65 233.6 1013.29 238.63 1017.67 250.95 1022.27 263.98 1020.14 290.04 1015.32 302.96 1010.56 315.71 996.87 325.4 983.51 325.4Z" fill="#cea482" opacity="1" stroke-width="4" stroke="#000000"></path><path d="M946.94 275.97C946.45 265.51 947.22 256.53 949.24 250.79 953.57 238.41 966.38 231.02 983.51 231.02 1000.54 231.02 1013.35 238.41 1017.78 250.79 1019.81 256.81 1020.58 265.57 1020.08 275.75V275.97C1011.43 274.82 1003.28 270.44 996.43 263.21 991.18 257.68 986.8 250.51 984.06 242.96 983.9 242.46 983.13 242.46 982.97 242.96 980.23 250.51 975.9 257.68 970.59 263.21 963.8 270.38 955.59 274.76 946.94 275.97Z" fill="#996b4d" opacity="1" stroke-width="4" stroke="#000000"></path><path d="M957.24 312.32C963.97 320.69 974.04 325.4 983.51 325.4 992.87 325.4 1002.89 320.75 1009.63 312.54" stroke="#000000" stroke-width="4" stroke-linecap="round" stroke-linejoin="round" opacity="1" fill="none"></path><path d="M1020.19 281L1027.31 277.17" stroke="#000000" stroke-width="4" stroke-linecap="round" stroke-linejoin="round" opacity="1" fill="none"></path><path d="M946.83 281L939.72 277.17" stroke="#000000" stroke-width="4" stroke-linecap="round" stroke-linejoin="round" opacity="1" fill="none"></path><path d="M968.73 278.81C970.09 278.81 971.2 277.71 971.2 276.35 971.2 274.99 970.09 273.88 968.73 273.88 967.37 273.88 966.27 274.99 966.27 276.35 966.27 277.71 967.37 278.81 968.73 278.81Z" fill="#191919" opacity="1" stroke-width="4" stroke="#000000"></path><path d="M998.29 278.81C999.66 278.81 1000.76 277.71 1000.76 276.35 1000.76 274.99 999.66 273.88 998.29 273.88 996.94 273.88 995.83 274.99 995.83 276.35 995.83 277.71 996.94 278.81 998.29 278.81Z" fill="#191919" opacity="1" stroke-width="4" stroke="#000000"></path><path d="M984.01 280.45C984.01 280.45 985.76 285.05 985.65 286.47 985.54 287.95 984.55 288.66 983.46 289.21" stroke="#000000" stroke-width="4" stroke-linecap="round" stroke-linejoin="round" opacity="1" fill="none"></path><path d="M978.31 296.87C980.5 299.61 986.52 299.61 988.71 296.87" stroke="#000000" stroke-width="4" stroke-linecap="round" stroke-linejoin="round" opacity="1" fill="none"></path><path d="M994.41 232.61C998.79 243.94 1007.44 255.82 1019.64 261.41" stroke="#000000" stroke-width="4" stroke-linecap="round" stroke-linejoin="round" opacity="1" fill="none"></path><path d="M972.45 232.61C968.07 243.89 959.53 255.71 947.38 261.35" stroke="#000000" stroke-width="4" stroke-linecap="round" stroke-linejoin="round" opacity="1" fill="none"></path><path d="M983.51 356.55V408.17" stroke="#000000" stroke-width="4" stroke-linecap="round" stroke-linejoin="round" opacity="1" fill="none"></path><path d="M938.79 389.39L935.17 408.34" stroke="#000000" stroke-width="4" stroke-linecap="round" stroke-linejoin="round" opacity="1" fill="none"></path><path d="M1028.24 389.39L1031.85 408.34" stroke="#000000" stroke-width="4" stroke-linecap="round" stroke-linejoin="round" opacity="1" fill="none"></path><path d="M884.48 473.76L884.42 432.1 926.09 432.05 926.14 473.76H884.48Z" fill="#ffffff" opacity="1" stroke-width="4" stroke="#000000"></path><path d="M926.09 432.1H884.48V473.71H926.09V432.1Z" stroke="#000000" stroke-width="4" stroke-linecap="round" stroke-linejoin="round" opacity="1" fill="none"></path><path d="M917.82 442.89L903.48 464.02 893.24 453.07" stroke="#000000" stroke-width="4" stroke-linecap="round" stroke-linejoin="round" opacity="1" fill="none"></path><path d="M948.53 452.36H1021.89" stroke="#000000" stroke-width="4" stroke-linecap="round" stroke-linejoin="round" opacity="1" fill="none"></path></g><g><path d="M406.57 988.16H324.29L304.51 860.77H426.51L406.57 988.16Z" fill="#5b2c35" opacity="1" stroke-width="4" stroke="#000000"></path><path d="M406.57 988.16H371.65L377.8 860.77H426.51L406.57 988.16Z" fill="#5b2c3500" opacity="0" stroke-width="4" stroke="#ffffff00"></path><path d="M365.36 901.39C318.9 901.39 307.54 864.83 307.39 860.76L422.99 860.79C422.66 868.16 411.82 901.39 365.36 901.39Z" fill="#61f9ff" opacity="1" stroke-width="4" stroke="#000000"></path></g><g><path d="M888.96 684.84H758.18V751.81H888.96V684.84Z" fill="#cecece" opacity="1" stroke-width="4" stroke="#000000"></path><path d="M888.96 751.02H758.18V817.99H888.96V751.02Z" fill="#cecece" opacity="1" stroke-width="4" stroke="#000000"></path><path d="M758.18 684.84H888.96V725.1L758.18 690.28V684.84Z" fill="#61f9ff00" opacity="0" stroke-width="4" stroke="#ffffff00"></path><path d="M758.18 751.02H888.96V791.28L758.18 756.46V751.02Z" fill="#61f9ff00" opacity="0" stroke-width="4" stroke="#ffffff00"></path><path d="M807.97 751.02H839.25C839.25 759.61 832.23 766.62 823.65 766.62 814.98 766.7 807.97 759.69 807.97 751.02Z" fill="#1f2323" opacity="1" stroke-width="4" stroke="#000000"></path><path d="M807.97 684.84H839.25C839.25 693.43 832.23 700.44 823.65 700.44 814.98 700.44 807.97 693.51 807.97 684.84Z" fill="#1f2323" opacity="1" stroke-width="4" stroke="#000000"></path><path d="M518.04 565.09H923.55C959.71 565.09 989.02 594.4 989.02 630.64V671.53H452.49V630.64C452.49 594.4 481.8 565.09 518.04 565.09Z" fill="#61f9ff" opacity="1" stroke-width="4" stroke="#000000"></path><path d="M989.02 682.09H888.49V986.2H989.02V682.09Z" fill="#61f9ff" opacity="1" stroke-width="4" stroke="#000000"></path><path d="M888.49 682.09H985C986.97 682.09 988.39 684.05 987.76 685.95L888.72 985.49C888.65 985.65 888.49 985.57 888.49 985.49V682.09Z" fill="#61f9ff00" opacity="0" stroke-width="4" stroke="#ffffff00"></path><path d="M553.02 682.09H452.49V986.2H553.02V682.09Z" fill="#61f9ff" opacity="1" stroke-width="4" stroke="#000000"></path><path d="M989.02 667.51H452.49V684.84H989.02V667.51Z" fill="#cecece" opacity="1" stroke-width="4" stroke="#000000"></path><path d="M758.18 751.02L888.17 750.87" stroke="#000000" stroke-width="4" stroke-linecap="round" stroke-linejoin="round" opacity="1" fill="none"></path><path d="M452.49 684.84L989.02 684.69" stroke="#000000" stroke-width="4" stroke-linecap="round" stroke-linejoin="round" opacity="1" fill="none"></path></g><g><path d="M1389.17 849.19C1358.52 796.84 1327.87 777.04 1311.91 737.55 1292.94 690.3 1307.26 594.7 1251.53 549.28H1251.43L1196.43 564.24C1196.43 564.24 1196.34 564.24 1196.34 564.33 1196.07 566.7 1186.4 646.06 1223.25 734.35 1230.55 751.78 1239.58 769.56 1250.98 787.17 1281.08 833.96 1313.28 881.3 1328.6 908.12 1333.26 916.33 1336.36 922.62 1337.36 926.36 1337.36 926.36 1337.36 926.36 1337.36 926.45L1364.18 943.6H1364.27L1413.34 893.43V893.34C1412.25 890.88 1409.69 885.95 1406.59 880.03 1401.3 869.81 1394.1 856.77 1389.17 849.19Z" fill="#f49e73" opacity="1" stroke-width="4" stroke="#000000"></path><path d="M1312 737.55C1293.03 690.3 1307.35 594.7 1251.62 549.28H1251.53L1196.52 564.24C1196.52 564.24 1196.43 564.24 1196.43 564.33 1196.16 566.7 1186.49 646.06 1223.25 734.26 1223.25 734.26 1223.25 734.35 1223.34 734.35L1320.85 755.97C1320.94 755.97 1321.03 755.88 1320.94 755.88 1317.66 750.13 1314.65 744.11 1312 737.55Z" fill="#f49e7300" opacity="0" stroke-width="4" stroke="#ffffff00"></path><path d="M1239.67 356.99C1240.58 338.29 1236.66 326.8 1227.26 312.75 1217.87 298.71 1202.73 290.13 1181.65 301.26 1166.69 309.11 1161.5 328.81 1160.13 345.87 1160.13 345.87 1160.13 345.96 1160.04 345.96 1159.4 346.14 1152.83 348.51 1152.65 351.52 1152.37 354.62 1157.3 358.64 1157.76 359.09V359.18C1153.29 370.77 1153.47 386.55 1165.97 392.02 1172.08 394.76 1181.93 395.12 1188.68 393.12 1188.77 393.12 1188.77 393.12 1188.77 393.21L1188.59 397.49C1188.59 397.58 1188.59 397.58 1188.68 397.58L1216.13 400.96H1226.35C1226.35 400.96 1226.44 400.96 1226.44 400.87 1226.99 399.77 1239.94 398.86 1240.03 397.58 1240.21 394.67 1240.4 391.2 1240.67 387.46 1241.31 377.15 1239.3 364.84 1239.67 356.99Z" fill="#f49e73" opacity="1" stroke-width="4" stroke="#000000"></path><path d="M1242.59 356.45C1243.5 337.75 1245.23 321.24 1235.84 307.28 1226.44 293.23 1199.99 284.93 1179.01 296.06H1178.92C1175 292.5 1170.16 290.22 1164.87 289.49 1157.03 288.58 1147.08 293.69 1148.09 304.45 1149.46 321.33 1177.82 343.86 1194.24 348.42H1194.33C1195.25 347.69 1213.94 332.91 1224.89 343.86 1234.56 355.99 1215.04 373.05 1213.94 373.96V374.05C1216.77 380.44 1232.64 387.55 1240.76 387.37 1240.85 387.37 1240.85 387.37 1240.85 387.28 1241.22 382.08 1242.4 361.1 1242.59 356.45Z" fill="#a66241" opacity="1" stroke-width="4" stroke="#000000"></path><path d="M1237.39 237.69C1256.45 213.34 1282.81 202.21 1296.31 212.79 1309.81 223.37 1305.43 251.65 1286.37 276 1267.31 300.36 1241.49 310.12 1227.99 299.54 1214.49 288.96 1218.41 261.96 1237.39 237.69Z" fill="#a66241" opacity="1" stroke-width="4" stroke="#000000"></path><path d="M1373.94 400.87C1374.21 400.23 1377.04 395.67 1373.94 391.47 1371.02 387.64 1360.8 396.03 1357.7 398.68 1357.61 398.77 1357.52 398.68 1357.61 398.59 1361.17 394.21 1376.04 375.33 1370.2 372.96 1363.9 370.22 1339.09 399.87 1336.81 402.6 1336.72 402.69 1336.63 402.6 1336.63 402.51 1336.63 400.59 1336.72 388.83 1334.17 387.09 1331.34 385.18 1323.5 398.13 1315.1 414.92 1310.54 424.04 1304.43 439.18 1299.96 450.58V450.67L1316.65 479.5C1316.65 479.5 1316.75 479.59 1316.75 479.5L1343.56 470.83C1343.56 470.83 1343.65 470.83 1343.65 470.74 1345.2 459.61 1346.39 450.95 1347.67 449.4 1352.32 443.74 1351.41 445.66 1364.45 433.52 1376.86 422.03 1373.3 415.55 1372.84 414.92V414.82C1379.14 408.62 1374.39 401.51 1373.94 400.87Z" fill="#f49e73" opacity="1" stroke-width="4" stroke="#000000"></path><path d="M1203.09 762.08C1210.57 711.64 1273.96 637.76 1248.88 570.53L1248.79 570.44 1175.73 570.89H1175.63C1174.63 572.72 1140.52 634.2 1125.65 727.51 1124.74 742.47 1124.55 758.07 1125.56 774.12 1129.57 838.8 1134.04 881.12 1136.59 917.88 1136.78 920.89 1136.96 923.9 1137.14 926.82L1154.2 969.15C1154.2 969.24 1154.29 969.24 1154.29 969.15L1217.96 931.38V931.29C1218.87 807.51 1196.89 804.13 1203.09 762.08Z" fill="#f49e73" opacity="1" stroke-width="4" stroke="#000000"></path><path d="M1129.57 725.15L1206.28 747.59C1206.37 747.59 1206.37 747.59 1206.37 747.5 1208.2 741.11 1210.66 734.45 1213.4 727.43 1215.13 723.05 1217.05 718.4 1219.05 713.84 1219.05 713.75 1219.05 713.75 1218.96 713.75L1129.57 724.97C1129.48 725.06 1129.48 725.15 1129.57 725.15Z" fill="#f49e7300" opacity="0" stroke-width="4" stroke="#ffffff00"></path><path d="M1010.81 542.71C989.37 553.02 958.54 574.45 954.8 581.93 951.43 588.77 957.26 590.14 958.36 590.32 958.45 590.32 958.45 590.42 958.36 590.51 951.43 597.62 962.28 600.45 963.1 600.63 963.1 600.63 963.19 600.63 963.19 600.72 965.84 614.4 991.29 597.26 995.3 594.52 995.39 594.43 995.48 594.61 995.39 594.61 992.75 597.89 978.7 615.59 985.54 616.41 992.93 617.32 1009.35 596.44 1009.8 595.89 1009.99 595.8 1012.36 594.79 1022.94 592.15 1029.96 590.23 1036.26 586.77 1041.64 581.84 1041.64 581.84 1041.64 581.84 1041.73 581.84 1042.46 581.84 1053.31 581.93 1066.72 581.38 1066.81 581.38 1066.81 581.38 1066.81 581.29L1067.36 548.55C1067.36 548.55 1067.36 548.55 1067.36 548.46L1054.13 527.93C1054.13 527.93 1054.04 527.84 1054.04 527.93 1037.53 532.86 1019.93 538.33 1010.81 542.71Z" fill="#f49e73" opacity="1" stroke-width="4" stroke="#000000"></path><path d="M1251.53 549.28L1206.92 561.41H1172.35 1172.26C1171.16 563.32 1131.76 632.19 1125.74 727.51 1125.74 727.6 1125.74 727.6 1125.83 727.6L1308.54 727.51C1308.63 727.51 1308.63 727.42 1308.63 727.42 1294.76 677.71 1303.61 591.51 1251.53 549.28 1251.62 549.28 1251.62 549.28 1251.53 549.28Z" fill="#5b2c35" opacity="1" stroke-width="4" stroke="#000000"></path><path d="M1132.4 535.51C1099.01 549.1 1075.66 538.52 1070.28 523.2L1070.19 523.11C1064.99 524.66 1059.88 526.12 1054.04 527.76 1053.95 527.76 1053.95 527.85 1053.95 527.85L1066.72 581.21 1066.81 581.3C1082.87 580.48 1102.75 578.57 1116.89 573.91L1116.98 573.82C1114.43 560.41 1130.57 538.25 1132.49 535.69 1132.58 535.6 1132.49 535.51 1132.4 535.51Z" fill="#ff306c" opacity="1" stroke-width="4" stroke="#000000"></path><path d="M1296.86 528.66C1313.83 516.71 1327.14 488.8 1327.42 462.8 1327.42 462.8 1327.42 462.71 1327.33 462.71L1300.05 450.58C1299.96 450.58 1299.96 450.58 1299.96 450.67 1299.23 452.68 1298.5 454.5 1297.77 456.24 1295.58 461.89 1294.12 465.91 1293.76 466.91 1293.76 467 1293.58 467 1293.58 466.91 1292.94 465.18 1288.83 453.96 1283.27 442.19L1283.18 442.1C1265.76 448.39 1253.99 456.97 1252.16 458.33 1252.07 458.43 1251.98 458.33 1252.07 458.24 1257.27 446.02 1259.01 432.61 1260.56 412.82 1260.56 412.82 1260.56 412.73 1260.46 412.73 1253.9 408.99 1246.96 406.16 1239.67 404.61L1239.58 404.52 1240.12 397.68C1240.12 397.58 1240.12 397.58 1240.03 397.58H1188.77C1188.68 397.58 1188.68 397.58 1188.68 397.68L1188.4 403.51C1188.4 403.6 1188.4 403.6 1188.31 403.6 1170.25 403.97 1153.29 409.81 1139.7 427.87 1135.32 433.71 1129.84 443.65 1124.19 455.05V455.14C1144.07 468.82 1180.1 467.18 1221.79 436.08 1221.88 435.99 1221.97 436.08 1221.88 436.17 1218.41 441.92 1179.47 509.51 1246.05 514.07 1246.14 514.07 1246.14 514.16 1246.05 514.25 1242.59 516.26 1205.83 538.06 1200.9 561.23 1200.9 561.32 1200.9 561.32 1200.99 561.32H1263.75C1263.84 561.32 1263.84 561.32 1263.84 561.23L1267.4 531.76C1267.4 531.67 1267.49 531.67 1267.58 531.76 1269.22 534.5 1285.64 560.68 1313.1 549.09 1322.31 545.17 1328.79 534.23 1333.35 520.82 1333.35 520.73 1333.35 520.73 1333.26 520.73 1318.02 519.91 1300.96 526.93 1296.86 528.75 1296.86 528.84 1296.77 528.75 1296.86 528.66Z" fill="#ff306c" opacity="1" stroke-width="4" stroke="#000000"></path><path d="M1297.59 456.61C1295.86 461.08 1293.85 466.64 1293.67 467.1 1293.67 467.1 1293.67 467.1 1293.67 467.19L1299.51 480.78C1299.51 480.87 1299.69 480.87 1299.69 480.78L1297.77 456.7C1297.77 456.52 1297.68 456.52 1297.59 456.61Z" fill="#ff306c00" opacity="0" stroke-width="4" stroke="#ffffff00"></path><path d="M1267.58 531.59C1267.85 532.14 1272.96 540.71 1281.81 546.55 1281.9 546.64 1281.99 546.55 1281.99 546.46 1280.81 544.27 1273.96 530.68 1271.05 503.77 1271.05 503.68 1270.86 503.68 1270.86 503.77L1267.58 531.59Z" fill="#ff306c00" opacity="0" stroke-width="4" stroke="#ffffff00"></path><path d="M1248.06 513.7C1181.38 509.05 1220.51 439.64 1223.98 433.8 1224.07 433.71 1223.89 433.61 1223.89 433.71 1182.2 464.9 1144.26 468.82 1124.37 455.23H1124.28C1111.42 481.41 1098.28 514.34 1097.83 515.71 1097.83 515.71 1097.83 515.71 1097.74 515.8 1096.91 515.98 1085.42 518.9 1070.46 523.19 1070.37 523.19 1070.37 523.28 1070.37 523.28 1075.66 538.6 1094.91 552.83 1128.2 539.24 1128.29 539.24 1128.38 539.33 1128.29 539.33 1126.74 541.71 1114.52 560.59 1117.07 573.81 1117.07 573.91 1117.16 573.91 1117.16 573.91 1119.72 573.08 1122.36 571.99 1124.64 570.71 1146.81 559.13 1161.4 526.47 1162.77 523.37 1162.77 523.28 1162.96 523.28 1162.96 523.37L1167.7 542.53 1172.35 561.32 1172.44 561.41H1204.18C1204.18 561.41 1204.28 561.41 1204.28 561.32 1209.29 538.15 1244.87 515.8 1248.15 513.79 1248.15 513.79 1248.15 513.7 1248.06 513.7Z" fill="#ff7fa4" opacity="1" stroke-width="4" stroke="#000000"></path><path d="M1162.77 523.11L1167.42 542.08C1167.42 542.17 1167.61 542.17 1167.61 542.08L1174.08 499.66C1174.08 499.57 1173.99 499.48 1173.9 499.57L1162.77 523.11Z" fill="#ff306c00" opacity="0" stroke-width="4" stroke="#ffffff00"></path><path d="M1283.18 442.11C1283.27 442.11 1283.27 442.02 1283.27 442.02 1280.53 436.27 1277.43 430.61 1274.06 425.14 1270.59 419.85 1265.76 415.84 1260.65 412.83 1260.56 412.83 1260.56 412.83 1260.56 412.92 1258.91 432.71 1251.07 454.88 1245.87 467.28 1245.87 467.37 1245.96 467.47 1246.05 467.37 1248.42 464.82 1265.57 448.4 1283.18 442.11Z" fill="#ff7fa4" opacity="1" stroke-width="4" stroke="#000000"></path><path d="M1327.42 462.9C1327.05 488.98 1310.36 518.72 1293.39 530.76 1293.3 530.85 1293.39 530.94 1293.49 530.94 1298.05 528.84 1318.02 520.18 1333.35 521.09 1333.35 521.09 1333.44 521.09 1333.44 521 1338.91 504.76 1341.74 485.52 1343.75 470.92 1343.75 470.92 1343.75 470.83 1343.65 470.83L1327.6 462.9C1327.51 462.71 1327.42 462.8 1327.42 462.9Z" fill="#ff7fa4" opacity="1" stroke-width="4" stroke="#000000"></path><path d="M958.36 590.32L985.72 568.89" stroke="#000000" stroke-width="4" stroke-linecap="round" stroke-linejoin="round" opacity="1" fill="none"></path><path d="M963.19 600.73L993.2 581.03" stroke="#000000" stroke-width="4" stroke-linecap="round" stroke-linejoin="round" opacity="1" fill="none"></path><path d="M1331.52 410.81L1336.63 402.42" stroke="#000000" stroke-width="4" stroke-linecap="round" stroke-linejoin="round" opacity="1" fill="none"></path><path d="M1373.94 400.88C1365.55 408.36 1358.43 413.37 1358.43 413.37" stroke="#000000" stroke-width="4" stroke-linecap="round" stroke-linejoin="round" opacity="1" fill="none"></path><path d="M1372.84 414.92C1368.19 419.57 1362.26 424.4 1362.26 424.4" stroke="#000000" stroke-width="4" stroke-linecap="round" stroke-linejoin="round" opacity="1" fill="none"></path><path d="M1231.55 633.47C1224.43 639.31 1213.67 639.31 1205.46 633.47 1199.81 629.46 1196.25 623.25 1195.52 616.5L1193.79 596.07C1193.79 595.98 1193.79 595.98 1193.88 595.98H1236.75C1236.84 595.98 1236.84 595.98 1236.84 596.07L1238.57 616.5C1239.03 622.89 1236.48 629.36 1231.55 633.47Z" fill="#96535f" opacity="1" stroke-width="4" stroke="#000000"></path><path d="M1276.88 633.48C1281.99 637.31 1288.47 638.77 1294.67 637.4 1294.76 637.4 1294.76 637.31 1294.76 637.31 1292.21 623.26 1288.92 609.03 1283.91 595.99L1283.82 595.9H1265.3C1265.21 595.9 1265.21 595.99 1265.21 595.99L1266.94 616.42C1267.67 623.35 1271.23 629.56 1276.88 633.48Z" fill="#96535f" opacity="1" stroke-width="4" stroke="#000000"></path><path d="M1189.13 393.12C1192.78 391.85 1196.16 390.11 1198.44 388.2" stroke="#000000" stroke-width="4" stroke-linecap="round" stroke-linejoin="round" opacity="1" fill="none"></path><path d="M1205.74 359.91L1212.21 353.34" stroke="#000000" stroke-width="4" stroke-linecap="round" stroke-linejoin="round" opacity="1" fill="none"></path><path d="M1172.17 351.16C1173.73 351.16 1175 349.9 1175 348.34 1175 346.77 1173.73 345.51 1172.17 345.51 1170.61 345.51 1169.34 346.77 1169.34 348.34 1169.34 349.9 1170.61 351.16 1172.17 351.16Z" fill="#17151c" opacity="1" stroke-width="4" stroke="#000000"></path><path d="M1166.79 366.85C1169.34 366.95 1171.62 365.94 1173.35 364.03" stroke="#000000" stroke-width="4" stroke-linecap="round" stroke-linejoin="round" opacity="1" fill="none"></path><path d="M1293.67 467.1L1299.6 480.69" stroke="#000000" stroke-width="4" stroke-linecap="round" stroke-linejoin="round" opacity="1" fill="none"></path><path d="M1162.86 523.11L1173.99 499.66" stroke="#000000" stroke-width="4" stroke-linecap="round" stroke-linejoin="round" opacity="1" fill="none"></path><path d="M1267.58 531.58L1270.86 503.85" stroke="#000000" stroke-width="4" stroke-linecap="round" stroke-linejoin="round" opacity="1" fill="none"></path><path d="M1236.02 307.56C1232.55 302.27 1226.72 297.8 1219.78 294.88" stroke="#000000" stroke-width="4" stroke-linecap="round" stroke-linejoin="round" opacity="1" fill="none"></path><path d="M1102.94 972.62C1111.6 958.3 1136.14 954.56 1136.32 925.54 1136.32 923.99 1136.59 919.07 1136.68 918.06 1136.68 917.97 1136.68 917.97 1136.78 917.97L1155.11 918.15C1161.95 918.15 1167.06 924.27 1165.97 930.92L1162.96 949.44C1162.96 949.53 1163.05 949.62 1163.14 949.53 1165.33 947.53 1185.03 932.93 1217.78 931.47 1217.96 931.47 1218.05 931.56 1218.05 931.75 1217.96 955.47 1218.05 963.13 1217.05 973.07 1217.05 973.07 1217.05 973.17 1216.95 973.17 1216.68 973.17 1215.31 973.44 1215.31 973.44L1103.03 972.89 1102.94 972.62Z" fill="#64ff32" opacity="1" stroke-width="4" stroke="#000000"></path><path d="M1103.03 972.62L1217.23 971.71C1217.32 971.71 1217.32 971.8 1217.32 971.8 1216.86 980.19 1216.68 981.38 1216.04 988.67 1216.04 988.76 1216.04 988.76 1215.95 988.76H1099.01C1098.92 988.76 1098.92 988.76 1098.92 988.67 1098.92 984.29 1099.56 980.74 1100.65 977.54 1101.2 975.72 1102.02 974.17 1103.03 972.62 1102.94 972.62 1102.94 972.62 1103.03 972.62Z" fill="#ff306c" opacity="1" stroke-width="4" stroke="#000000"></path><path d="M1133.67 940.97L1146.54 946.35" stroke="#000000" stroke-width="4" stroke-linecap="round" stroke-linejoin="round" opacity="1" fill="none"></path><path d="M1127.65 950.91L1138.6 959.12" stroke="#000000" stroke-width="4" stroke-linecap="round" stroke-linejoin="round" opacity="1" fill="none"></path><path d="M1162.96 949.71L1158.49 971.71" stroke="#000000" stroke-width="4" stroke-linecap="round" stroke-linejoin="round" opacity="1" fill="none"></path><path d="M1324.13 971.25C1325.59 954.56 1344.75 940.96 1332.07 914.87 1331.34 913.41 1330.88 911.86 1329.97 910.31 1329.61 909.67 1329.15 908.76 1328.79 908.12V908.03L1345.75 899.82C1351.86 896.81 1359.16 900 1361.17 906.48L1366.73 924.63C1367.1 923.54 1376.86 896.54 1406.68 880.12 1406.78 880.12 1406.78 880.12 1406.78 880.12 1410.24 885.59 1423.56 910.04 1427.94 920.53L1427.66 920.16 1324.41 971.25H1324.13Z" fill="#64ff32" opacity="1" stroke-width="4" stroke="#000000"></path><path d="M1324.22 971.25L1427.57 919.53C1427.66 919.53 1427.66 919.53 1427.66 919.53 1430.86 926.46 1432.32 930.02 1434.6 934.95V935.04L1327.78 987.49C1327.69 987.49 1327.69 987.49 1327.69 987.49 1325.78 983.56 1324.77 980.1 1324.32 976.72 1324.04 974.81 1324.04 972.98 1324.22 971.25 1324.13 971.25 1324.13 971.25 1324.22 971.25Z" fill="#ff306c" opacity="1" stroke-width="4" stroke="#000000"></path><path d="M1335.54 941.42L1347.48 943.7" stroke="#000000" stroke-width="4" stroke-linecap="round" stroke-linejoin="round" opacity="1" fill="none"></path><path d="M1366.73 924.81L1372.39 946.52" stroke="#000000" stroke-width="4" stroke-linecap="round" stroke-linejoin="round" opacity="1" fill="none"></path><path d="M1336.36 931.3L1348.03 929.75" stroke="#000000" stroke-width="4" stroke-linecap="round" stroke-linejoin="round" opacity="1" fill="none"></path><path d="M1264.02 561.42H1172.26" stroke="#000000" stroke-width="4" stroke-linecap="round" stroke-linejoin="round" opacity="1" fill="none"></path></g><g><path d="M669.92 667.28H731.39L735.34 644.97 739.29 622.5H677.81L676.37 630.63 669.92 667.28Z" fill="#5b2c35" opacity="1" stroke-width="4" stroke="#000000"></path><path d="M735.34 644.97L739.29 622.5H677.81L676.37 630.63 735.34 644.97Z" fill="#5b2c3500" opacity="0" stroke-width="4" stroke="#ffffff00"></path><path d="M627.95 626.75H787.63C798.26 626.75 808.35 618.18 810.25 607.55L829.6 497.96C831.5 487.33 824.37 478.76 813.82 478.76H654.06C643.43 478.76 633.34 487.33 631.44 497.96L612.16 607.63C610.26 618.18 617.32 626.75 627.95 626.75Z" fill="#5b2c35" opacity="1" stroke-width="4" stroke="#000000"></path><path d="M636.22 615.22H783.46C790.29 615.22 796.74 609.68 797.95 602.92L815.64 502.74C816.85 495.91 812.3 490.45 805.47 490.45H658.23C651.4 490.45 644.95 495.99 643.73 502.74L626.05 602.92C624.91 609.68 629.47 615.22 636.22 615.22Z" fill="#ffffff" opacity="1" stroke-width="4" stroke="#000000"></path><path d="M677.05 626.75H738.53" stroke="#000000" stroke-width="4" stroke-linecap="round" stroke-linejoin="round" opacity="1" fill="none"></path></g><g><path d="M695.72 520.28H756.62C765.64 520.28 771.87 526.39 770.57 533.95L763.97 572.44C762.67 580 754.34 586.1 745.33 586.1H684.42C675.41 586.1 669.17 580 670.47 572.44L677.08 533.95C678.37 526.39 686.7 520.28 695.72 520.28Z" fill="#64ff32" opacity="1" stroke-width="4" stroke="#000000"></path><path d="M681.38 527.07L719.51 558.09 768.4 527.07" stroke="#000000" stroke-width="4" stroke-linecap="round" stroke-linejoin="round" opacity="1" fill="none"></path><path d="M712.99 553.63L672.39 579.42" stroke="#000000" stroke-width="4" stroke-linecap="round" stroke-linejoin="round" opacity="1" fill="none"></path><path d="M759.42 579.42L728.38 554.21" stroke="#000000" stroke-width="4" stroke-linecap="round" stroke-linejoin="round" opacity="1" fill="none"></path></g><g><path d="M365.66 527.81L343.12 563.89 381.49 538.96 395.28 567.64 395.49 532.21 437.51 519.45 395.46 515.59 416.5 476.62 381.81 509.31 365.59 473.44 368.88 514.74 330.29 509.31 365.66 527.81Z" stroke="#000000" stroke-width="4" stroke-linecap="round" stroke-linejoin="round" opacity="1" fill="none"></path></g><g><path d="M533.55 816.32C538.79 816.32 543.11 820.55 543.11 825.79L543.03 850.6V953.23C543.03 958.47 538.79 962.71 533.55 962.71 528.32 962.71 524.08 958.47 524.08 953.23V825.79C524 820.55 528.24 816.32 533.55 816.32Z" fill="#cecece" opacity="1" stroke-width="4" stroke="#000000"></path><path d="M533.55 816.32C528.24 816.32 524 820.55 524.08 825.79V859.23L543.03 850.6 543.11 825.79C543.03 820.55 538.79 816.32 533.55 816.32Z" fill="#cecece00" opacity="0" stroke-width="4" stroke="#ffffff00"></path><path d="M600.05 975.42C598.74 974.27 534.09 917.79 534.09 917.79H532.94C532.94 917.79 468.29 974.27 466.98 975.42 465.37 976.35 463.59 980.89 466.14 983.82 468.14 986.29 471.68 986.9 474.38 985.13 474.53 985.06 509.9 960.78 531.09 946.22 532.55 945.22 534.4 945.22 535.87 946.22 557.06 960.78 592.5 985.06 592.58 985.13 595.35 986.9 598.97 986.21 600.82 983.82 603.44 980.82 601.67 976.35 600.05 975.42Z" fill="#1f2323" opacity="1" stroke-width="4" stroke="#000000"></path><path d="M518.14 914.09H548.89C550.74 914.09 552.2 915.56 552.2 917.41V933.89H514.75V917.41C514.83 915.56 516.3 914.09 518.14 914.09Z" fill="#5b2c35" opacity="1" stroke-width="4" stroke="#000000"></path><path d="M514.83 810.31H552.28V835.96C552.28 837.27 551.2 838.43 549.81 838.43H517.22C515.91 838.43 514.83 837.35 514.83 835.96V810.31Z" fill="#5b2c35" opacity="1" stroke-width="4" stroke="#000000"></path><path d="M478.16 795.05H588.88C596.27 795.05 602.21 801.06 602.21 808.38 602.21 815.78 596.2 821.71 588.88 821.71H478.16C470.76 821.71 464.83 815.7 464.83 808.38 464.83 801.06 470.84 795.05 478.16 795.05Z" fill="#1f2323" opacity="1" stroke-width="4" stroke="#000000"></path></g><g><path d="M728.18 945.06L680.65 939.22C677.93 926.48 675.01 911.31 672.5 893.56L674.24 891.2H753.02L753.71 893.56C754.83 901.5 756.78 909.22 759.35 916.74L728.18 945.06Z" fill="#846146" opacity="1" stroke-width="4" stroke="#000000"></path><path d="M553.71 686.74L587.33 687.93C587.33 687.93 687.53 697.74 721.15 731.35 746.48 756.68 747.45 811.73 750.17 857.79H668.54C666.03 824.39 666.8 797.67 666.8 797.67L604.65 795.3C604.65 795.3 559.42 795.09 547.31 764.13 535.2 733.3 553.71 686.74 553.71 686.74Z" fill="#5b2c35" opacity="1" stroke-width="4" stroke="#000000"></path><path d="M753.78 893.49L691.29 893.56C691.15 892.1 691.57 889.04 691.43 887.58 692.2 875.54 692.55 865.94 693.59 855.57H750.03C751 869 751.98 881.94 753.78 893.49Z" fill="#000000" opacity="1" stroke-width="4" stroke="#000000"></path><path d="M723.07 937.52L723.51 926.76C723.6 921.62 726.09 917.5 730.89 916.88 731.31 916.81 731.79 916.81 732.21 916.81H759.42C760.88 920.77 762.83 924.6 765.13 928.08 775.5 943.18 794.01 949.24 805.63 963.43 807.09 965.31 808.97 968.3 809.73 970.67H688.51C686.35 963.15 683.43 951.88 680.65 939.35H723.07V938.37H723.07V937.55Z" fill="#ff306c" opacity="1" stroke-width="4" stroke="#000000"></path><path d="M809.25 969.42C811.34 974.57 811.89 978.81 812.59 985.84H693.52C693.52 985.84 691.36 980.27 688.23 969.42H809.25V969.42Z" fill="#151313" opacity="1" stroke-width="4" stroke="#000000"></path><path d="M681.33 753.84C726.98 753.84 714.31 820.3 711.6 893.51 709.72 942.64 737.49 935.75 758.15 963.38 759.62 965.33 760.8 967.27 761.77 969.43 763.86 974.58 764.63 980.22 764 985.85H702.07C702.07 985.85 699.91 980.29 696.78 969.43 694.62 961.92 691.97 951.82 689.19 939.3 686.48 926.56 683.55 911.39 681.05 893.65 680.91 892.19 680.63 890.79 680.49 889.33 678.96 877.5 677.78 866.23 676.94 855.72 674.44 822.32 675.34 797.96 675.34 797.96 675.34 797.96 612.92 753.84 681.33 753.84Z" fill="#5b2c3500" opacity="0" stroke-width="4" stroke="#ffffff00"></path><path d="M677.93 951.12L613.35 946.31 610.85 939.7C608.83 926.13 606.95 909.99 605.84 893.56V891.2L689.97 890.01 691.71 893.56C691.36 901.91 691.36 909.71 691.78 916.74L677.93 951.12Z" fill="#846146" opacity="1" stroke-width="4" stroke="#000000"></path><path d="M656.43 939.18L654.55 926.72C653.85 921.99 657.12 917.47 661.93 916.84 662.34 916.77 662.83 916.77 663.25 916.77H691.78C691.92 920.18 692.27 923.38 692.75 926.38 695.33 944.47 719.96 949.2 731.59 963.47 733.05 965.35 734.79 969.03 735.76 971.19H616.21C614.67 963.33 612.52 951.36 610.85 939.39H656.46L656.43 939.18Z" fill="#ff306c" opacity="1" stroke-width="4" stroke="#000000"></path><path d="M484.46 686.74H559.2C559.2 686.74 649.46 698.57 682.31 731.35 703.53 752.57 698.45 809.78 694.35 859.12L604.3 858.07C604.02 821.05 607.5 797.04 607.5 797.04H517.24C517.24 797.04 483.98 795.16 471.87 764.2 459.76 733.3 484.46 686.74 484.46 686.74Z" fill="#5b2c35" opacity="1" stroke-width="4" stroke="#000000"></path><path d="M484.47 686.74H514.53C514.53 686.74 528.17 756.26 517.25 758.35 511.47 759.46 499.36 740.54 499.36 740.54 484.61 752.09 469.16 753.83 469.16 753.83 464.78 723.83 484.47 686.74 484.47 686.74Z" fill="#5b2c3500" opacity="0" stroke-width="4" stroke="#ffffff00"></path><path d="M607.43 797.04C607.43 797.04 549.46 797.04 567.21 797.04 588.01 791.89 597.06 770.6 612.3 770.6 609.03 786.81 607.43 797.04 607.43 797.04Z" fill="#5b2c3500" opacity="0" stroke-width="4" stroke="#ffffff00"></path><path d="M607.44 797.74C608.97 790.85 610.71 784.79 610.71 784.79" stroke="#000000" stroke-width="4" stroke-linecap="round" stroke-linejoin="round" opacity="1" fill="none"></path><path d="M735.06 969.42C737.15 974.57 737.92 980.2 737.29 985.84H619.34C619.34 985.84 617.88 979.72 615.86 969.42H735.06V969.42Z" fill="#151313" opacity="1" stroke-width="4" stroke="#000000"></path><path d="M772.96 937.32L764.22 945.13" stroke="#000000" stroke-width="4" stroke-linecap="round" stroke-linejoin="round" opacity="1" fill="none"></path><path d="M699.04 938.64L691.63 945.13" stroke="#000000" stroke-width="4" stroke-linecap="round" stroke-linejoin="round" opacity="1" fill="none"></path><path d="M691.63 893.49H605.76C605.69 892.03 605.62 890.64 605.48 889.18 604.65 876.86 604.44 865.59 604.37 855.57H694.77C693.65 868.79 692.12 881.59 691.63 893.49Z" fill="#000000" opacity="1" stroke-width="4" stroke="#000000"></path><path d="M646.76 709.43C659.7 715 673.27 722.3 682.32 731.35 703.54 752.57 698.53 806.23 694.35 855.5 693.24 868.72 692.2 881.52 691.71 893.42 691.36 901.78 691.36 909.57 691.78 916.6 691.92 920.01 692.27 923.21 692.75 926.2 695.33 944.3 719.96 949.03 731.59 963.29 733.05 965.17 734.23 967.19 735.2 969.35" stroke="#000000" stroke-width="4" stroke-linecap="round" stroke-linejoin="round" opacity="1" fill="none"></path><path d="M518.22 440.67C538.26 436.57 550.65 433.43 560.32 443.87 565.68 449.79 569.37 460.57 572.92 471.92 572.92 471.92 580.58 473.1 581.48 475.95 582.66 479.5 577.17 485.42 577.17 485.42 580.64 495.09 584.4 504.9 580.02 514.3 575.7 523.69 563.87 527.94 553.16 526.41L556.22 538.45 499.36 538.86C494.7 519.03 491.71 493.35 489.69 482.15 485.86 460.92 495.05 445.54 518.22 440.67Z" fill="#846146" opacity="1" stroke-width="4" stroke="#000000"></path><path d="M553.09 526.41L555.45 535.52 536.87 522.37C546.06 525.29 553.09 526.41 553.09 526.41Z" fill="#84614600" opacity="0" stroke-width="4" stroke="#ffffff00"></path><path d="M516.48 433.78C536.52 429.68 550.65 433.43 560.32 443.87 562.48 446.31 564.08 448.88 565.08 451.66 565.47 451.74 548.49 461.08 535.09 454.01 533.67 453.14 538.79 467.21 523.91 468.42 522.38 468.29 534.54 487.39 529.5 485.84 529.5 485.84 506.6 479.23 503.47 490.92 499.78 503.93 520.87 514.86 520.55 515.36 510.71 526.27 498.49 527.41 496.87 527.44 494.23 524.52 486.98 488.76 485.31 479.29 481.55 457.79 493.31 438.65 516.48 433.78Z" fill="#000000" opacity="1" stroke-width="4" stroke="#000000"></path><path d="M553.15 526.41C548.9 525.64 544.45 524.81 540.14 523.48" stroke="#000000" stroke-width="4" stroke-linecap="round" stroke-linejoin="round" opacity="1" fill="none"></path><path d="M525.88 500.94L516.41 497.32" stroke="#000000" stroke-width="4" stroke-linecap="round" stroke-linejoin="round" opacity="1" fill="none"></path><path d="M570.07 495.16C566.94 495.86 563.46 495.16 561.37 492.24" stroke="#000000" stroke-width="4" stroke-linecap="round" stroke-linejoin="round" opacity="1" fill="none"></path><path d="M561.02 478.11C559.68 478.11 558.58 477.02 558.58 475.68 558.58 474.33 559.68 473.24 561.02 473.24 562.36 473.24 563.46 474.33 563.46 475.68 563.46 477.02 562.36 478.11 561.02 478.11Z" fill="#000000" opacity="1" stroke-width="4" stroke="#000000"></path><path d="M671.81 563.08C672.09 563.15 672.43 563.08 672.64 562.8 676.4 557.1 714.47 498.85 729.64 485.7 738.2 478.25 745.57 478.39 754.34 476.3 763.11 474.15 776.82 463.29 781.13 467.6 784.68 471.15 775.01 480.2 771.53 483.26 771.04 483.68 771.32 484.44 771.95 484.58 784.54 486.39 789.55 484.24 803.75 482.08 815.79 480.2 818.36 482.01 818.85 482.63 818.99 482.77 819.13 482.84 819.34 482.91 828.8 484.24 826.58 489.11 825.74 490.5 825.6 490.71 825.6 490.99 825.74 491.26 829.99 499.06 813.01 504.76 797.28 511.86 782.32 518.68 759.7 520.91 755.87 521.19 755.52 521.19 755.25 521.47 755.25 521.74 753.92 528.36 739.52 593.91 697.63 618.96 683.57 626.55 660.05 625.85 640.49 623.42 640.07 623.35 639.8 622.93 639.87 622.51L652.74 558.42C652.81 558 653.23 557.72 653.64 557.86 660.88 559.95 669.58 562.45 671.81 563.08Z" fill="#846146" opacity="1" stroke-width="4" stroke="#000000"></path><path d="M746.55 521.54L755.18 521.19C755.18 521.19 753.85 527.87 750.86 537.96L746.55 521.54Z" fill="#84614600" opacity="0" stroke-width="4" stroke="#ffffff00"></path><path d="M657.82 559.11L644.67 624.04C616.76 620.42 583.01 611.31 583.01 611.31L581.55 543.53C605.42 545.82 639.73 554.1 657.82 559.11Z" fill="#64ff32" opacity="1" stroke-width="4" stroke="#000000"></path><path d="M613.98 618.68C599.43 615.55 588.58 612.49 588.58 612.49L586.49 587.72 613.98 618.68Z" fill="#64ff3200" opacity="0" stroke-width="4" stroke="#ffffff00"></path><path d="M672.29 563.22L683.63 566.63" stroke="#000000" stroke-width="4" stroke-linecap="round" stroke-linejoin="round" opacity="1" fill="none"></path><path d="M825.25 490.85C816.55 490.08 797.76 498.85 781.06 501.01 781.06 501.01 749.18 490.85 736.87 501.01" stroke="#000000" stroke-width="4" stroke-linecap="round" stroke-linejoin="round" opacity="1" fill="none"></path><path d="M818.02 482.84C814.33 482.84 788.3 490.15 781.06 490.85" stroke="#000000" stroke-width="4" stroke-linecap="round" stroke-linejoin="round" opacity="1" fill="none"></path><path d="M755.18 521.19C752.18 521.47 749.19 521.4 746.34 520.77" stroke="#000000" stroke-width="4" stroke-linecap="round" stroke-linejoin="round" opacity="1" fill="none"></path><path d="M770.21 484.24L761.79 482.84" stroke="#000000" stroke-width="4" stroke-linecap="round" stroke-linejoin="round" opacity="1" fill="none"></path><path d="M455.52 548.75C475.84 535.73 500.41 545.06 500.41 545.06H557.68C563.39 542.76 573.06 542.62 584.19 543.74 584.19 543.74 589.48 568.93 588.79 612.49 588.02 655.91 587.33 687.93 587.33 687.93H484.4L454.69 611.1 455.52 548.75Z" fill="#ff306c" opacity="1" stroke-width="4" stroke="#000000"></path><path d="M473.06 658.35L454.76 611.17 481.62 605.53 473.06 658.35Z" fill="#ff306c00" opacity="0" stroke-width="4" stroke="#ffffff00"></path><path d="M557.96 544.99L546.27 561.06 535.97 545.13 526.71 561.06 500.48 545.06 499.02 537.82H556.15L557.96 544.99Z" fill="#64ff32" opacity="1" stroke-width="4" stroke="#000000"></path><path d="M533.88 600.24H509.25" stroke="#000000" stroke-width="4" stroke-linecap="round" stroke-linejoin="round" opacity="1" fill="none"></path><path d="M402.42 616.6L458.31 647.22C454.55 652.3 449.82 658.91 449.82 658.91 449.82 658.91 505.63 671.15 529.5 691.54 549.96 708.94 564.99 737.96 556.98 744.5 557.75 749.58 554.06 752.51 549.68 751.04 543.9 761.9 527.9 740.19 521.42 732.88 525.74 751.67 526.5 757.59 523.65 758.21 518.01 759.6 513.49 748.05 505.49 729.96 499.71 727.04 486.7 721.26 483.01 713.26 384.4 724.81 374.31 679.85 390.25 641.51 393.93 633.65 399.01 623.35 402.42 616.6Z" fill="#846146" opacity="1" stroke-width="4" stroke="#000000"></path><path d="M449.81 658.91C441.11 656.68 430.81 653.9 430.81 653.9" stroke="#000000" stroke-width="4" stroke-linecap="round" stroke-linejoin="round" opacity="1" fill="none"></path><path d="M556.98 744.5C549.67 729.26 533.8 710.4 533.8 710.4" stroke="#000000" stroke-width="4" stroke-linecap="round" stroke-linejoin="round" opacity="1" fill="none"></path><path d="M548.77 750.63C541.12 736.5 524.42 717.64 524.42 717.64" stroke="#000000" stroke-width="4" stroke-linecap="round" stroke-linejoin="round" opacity="1" fill="none"></path><path d="M521.56 732.88L517.18 724.95" stroke="#000000" stroke-width="4" stroke-linecap="round" stroke-linejoin="round" opacity="1" fill="none"></path><path d="M455.52 548.75C460.39 545.61 465.89 543.53 471.6 542.55 500.41 566.91 480.16 614.65 471.46 628.43 469.23 631.98 461.92 642.2 456.29 649.86L400.75 619.73C429.7 564.96 455.52 548.75 455.52 548.75Z" fill="#64ff32" opacity="1" stroke-width="4" stroke="#000000"></path></g><g><path d="M513.18 238.11L494.72 171.73" stroke="#000000" stroke-width="4" stroke-linecap="round" stroke-linejoin="round" opacity="1" fill="none"></path><path d="M485.45 326.35L409.93 254.01" stroke="#000000" stroke-width="4" stroke-linecap="round" stroke-linejoin="round" opacity="1" fill="none"></path><path d="M436.92 372.54L383.48 361.39" stroke="#000000" stroke-width="4" stroke-linecap="round" stroke-linejoin="round" opacity="1" fill="none"></path></g><g><path d="M877.82 611.89H821.07C820.43 611.89 820.27 612.77 820.91 613.01 826.29 614.69 837.04 618.47 848.44 624.49 859.6 630.35 871.4 638.37 879.34 648.65H916.11C916.11 648.65 914.66 642.63 909.37 635.08 904.07 627.46 894.76 618.39 879.1 612.21 878.7 611.97 878.22 611.89 877.82 611.89Z" fill="#64ff32" opacity="1" stroke-width="4" stroke="#000000"></path><path d="M848.44 624.41C859.52 630.27 871.32 638.21 879.26 648.57H916.03C916.03 648.57 914.66 642.55 909.37 635L848.44 624.41Z" fill="#64ff3200" opacity="0" stroke-width="4" stroke="#ffffff00"></path><path d="M799.31 666.55H884.64V648.01C884.64 648.01 866.1 635.32 842.02 635.32 821.71 635.32 805.25 644.39 800.68 647.2 799.88 647.69 799.39 648.57 799.39 649.53L799.31 666.55Z" fill="#64ff32" opacity="1" stroke-width="4" stroke="#000000"></path><path d="M884.24 666.55L969.89 666.55V648.17C969.89 648.01 969.81 647.93 969.73 647.85 967.88 646.64 950.06 635.24 927.27 635.24 903.18 635.24 884.24 647.93 884.24 647.93V666.55Z" fill="#64ff32" opacity="1" stroke-width="4" stroke="#000000"></path><path d="M969.49 648.01C969.49 648.01 950.95 635.32 926.86 635.32 902.78 635.32 884.24 648.01 884.24 648.01V666.55" stroke="#000000" stroke-width="4" stroke-linecap="round" stroke-linejoin="round" opacity="1" fill="none"></path></g></svg>